#!OML:ASF E:\id_vita\Project 1\Capture day 1\Session 1\Male1.ASF
:FULLY-SPECIFIED
:DEGREES
737
root -23.8859 14.7846 -3.95787 543.409 -36.0707 -535.491
lowerback 5.27373 -3.15634 -7.85057
upperback 3.68547 -4.79375 -3.07445
thorax 1.23705 -2.62669 1.37775
lowerneck -3.58631 -1.82757 -0.141794
upperneck -24.0862 -3.98194 4.80458
head -6.64567 -3.21118 1.8657
rclavicle -1.32391e-013 -4.13472e-014
rhumerus -29.9941 2.26937 -91.9016
rradius 30.3369
rwrist 3.59444
rhand -18.768 35.1421
rfingers 7.12502
rthumb 7.52911 5.29608
lclavicle -1.32391e-013 -4.13472e-014
lhumerus -15.7794 20.3123 76.3357
lradius 16.3717
lwrist -13.2826
lhand -11.122 47.4368
lfingers 7.12502
lthumb 14.9029 76.8807
rfemur -36.4874 -4.54904 30.4364
rtibia 54.9601
rfoot -22.6733 -4.3822
rtoes 18.0324
lfemur -9.54891 14.6909 -16.1845
ltibia 49.1212
lfoot -39.4243 -10.839
ltoes 36.9503
738
root -23.8917 14.7898 -3.96826 543.314 -36.2256 -535.261
lowerback 5.19624 -3.26731 -7.70458
upperback 3.6337 -4.9118 -2.86517
thorax 1.24253 -2.67651 1.51263
lowerneck -3.81882 -1.85199 -0.550676
upperneck -23.7657 -4.00408 4.79124
head -6.49235 -3.16859 1.91483
rclavicle 3.69739e-014 -3.81667e-014
rhumerus -30.0498 2.604 -91.6987
rradius 30.1924
rwrist 3.64553
rhand -18.9946 35.1215
rfingers 7.12502
rthumb 7.31034 5.26775
lclavicle 3.69739e-014 -3.81667e-014
lhumerus -16.0346 20.4209 76.5165
lradius 16.521
lwrist -13.0944
lhand -11.1183 47.2576
lfingers 7.12502
lthumb 14.9065 76.7013
rfemur -36.3922 -4.57744 30.6461
rtibia 54.7731
rfoot -22.5977 -4.62902
rtoes 17.0457
lfemur -9.52848 14.6138 -15.9512
ltibia 49.0383
lfoot -39.4376 -10.9592
ltoes 37.0601
739
root -23.8956 14.7992 -3.97731 543.378 -36.3943 -535.167
lowerback 5.0386 -3.31621 -7.6285
upperback 3.56325 -4.95243 -2.82064
thorax 1.25796 -2.69064 1.50972
lowerneck -3.69899 -1.89266 -0.564466
upperneck -23.7265 -4.02128 4.90182
head -6.49587 -3.17702 1.95424
rclavicle -5.96354e-015 4.6118e-014
rhumerus -30.1651 3.09257 -91.796
rradius 30.0662
rwrist 3.20374
rhand -19.2074 35.1285
rfingers 7.12502
rthumb 7.10494 5.26772
lclavicle -5.96354e-015 4.6118e-014
lhumerus -16.1518 20.2832 76.5547
lradius 16.4829
lwrist -13.0383
lhand -11.8924 47.7783
lfingers 7.12502
lthumb 14.1607 77.2757
rfemur -36.4225 -4.53946 30.6858
rtibia 54.6718
rfoot -22.6505 -4.37021
rtoes 18.6796
lfemur -9.60607 14.5337 -15.8804
ltibia 48.914
lfoot -39.4339 -10.8286
ltoes 36.6168
740
root -23.8972 14.8043 -3.98265 543.571 -36.5025 -535.169
lowerback 4.82797 -3.28872 -7.52743
upperback 3.54632 -4.89052 -2.87513
thorax 1.33876 -2.65869 1.38307
lowerneck -3.63115 -1.93347 -0.457501
upperneck -23.8938 -4.07559 4.9845
head -6.56072 -3.228 1.97233
rclavicle -9.54166e-015 3.33958e-014
rhumerus -30.117 2.5331 -91.7132
rradius 29.9814
rwrist 3.56173
rhand -19.1591 34.9984
rfingers 7.12502
rthumb 7.15154 5.13926
lclavicle -9.54166e-015 3.33958e-014
lhumerus -15.899 20.0356 76.6153
lradius 16.238
lwrist -13.1886
lhand -12.3587 48.1472
lfingers 7.12502
lthumb 13.7113 77.6755
rfemur -36.6378 -4.5639 30.7268
rtibia 54.6845
rfoot -22.5445 -4.9006
rtoes 17.0497
lfemur -9.7625 14.5005 -15.9232
ltibia 48.7187
lfoot -39.2848 -10.9621
ltoes 37.115
741
root -23.902 14.8093 -3.98307 544.514 -36.469 -536.26
lowerback 4.5726 -3.247 -8.32275
upperback 3.42212 -4.85647 -3.06711
thorax 1.40237 -2.65835 1.60496
lowerneck -3.47364 -1.94511 -0.580254
upperneck -24.0673 -4.11196 4.9133
head -6.64229 -3.235 1.98091
rclavicle 2.70347e-014 -1.06549e-013
rhumerus -30.1248 2.02708 -91.4567
rradius 29.9139
rwrist 4.09534
rhand -19.0745 34.8125
rfingers 7.12502
rthumb 7.23328 4.95615
lclavicle 2.70347e-014 -1.06549e-013
lhumerus -15.8704 20.1133 76.6944
lradius 16.2089
lwrist -13.5336
lhand -11.6056 47.3883
lfingers 7.12502
lthumb 14.437 76.8662
rfemur -37.047 -4.60704 29.736
rtibia 54.8555
rfoot -22.7488 -4.29681
rtoes 18.7025
lfemur -9.95097 14.3581 -17.0703
ltibia 48.3964
lfoot -39.2262 -10.6614
ltoes 37.373
742
root -23.8977 14.8073 -4.00048 544.6 -36.4375 -536.626
lowerback 4.62803 -3.16373 -8.80677
upperback 3.43012 -4.77705 -3.09457
thorax 1.41246 -2.63175 1.84176
lowerneck -3.38297 -1.95446 -0.607821
upperneck -24.1034 -4.12628 4.86612
head -6.66971 -3.23373 1.97392
rclavicle 1.28812e-013 -1.59028e-014
rhumerus -30.1298 2.34492 -91.4539
rradius 29.777
rwrist 3.75743
rhand -19.0873 34.6631
rfingers 7.12502
rthumb 7.22092 4.80633
lclavicle 1.28812e-013 -1.59028e-014
lhumerus -15.9751 19.6255 76.7877
lradius 16.3972
lwrist -13.157
lhand -11.2989 47.3235
lfingers 7.12502
lthumb 14.7325 76.7799
rfemur -36.838 -4.35316 29.336
rtibia 54.9316
rfoot -23.0552 -3.70973
rtoes 21.6537
lfemur -9.61591 14.3556 -17.3347
ltibia 48.112
lfoot -39.4353 -9.78884
ltoes 35.4684
743
root -23.9063 14.8075 -4.00231 544.74 -36.518 -536.959
lowerback 4.70945 -3.14965 -8.95983
upperback 3.41956 -4.78021 -3.15459
thorax 1.36415 -2.63601 1.86949
lowerneck -3.46137 -1.98356 -0.700944
upperneck -24.0393 -4.16503 4.86886
head -6.6322 -3.24125 1.98791
rclavicle 2.10712e-014 -5.56597e-014
rhumerus -30.0676 2.97132 -91.5121
rradius 29.6029
rwrist 2.99376
rhand -19.1443 34.5625
rfingers 7.12502
rthumb 7.16583 4.70382
lclavicle 2.10712e-014 -5.56597e-014
lhumerus -16.0201 19.1852 76.9621
lradius 16.4424
lwrist -12.6461
lhand -11.9105 47.9272
lfingers 7.12502
lthumb 14.1433 77.4259
rfemur -36.8114 -4.54201 29.0669
rtibia 54.9138
rfoot -22.9639 -4.42893
rtoes 18.6092
lfemur -9.37896 14.2236 -17.6543
ltibia 47.8335
lfoot -39.4575 -9.56198
ltoes 35.0208
744
root -23.9129 14.8161 -4.00643 544.019 -36.7128 -536.281
lowerback 5.04601 -3.14283 -8.27431
upperback 3.46236 -4.76959 -3.03069
thorax 1.17099 -2.60982 1.64713
lowerneck -3.36762 -2.02351 -0.760303
upperneck -23.9859 -4.20113 4.86311
head -6.62824 -3.24421 1.99723
rclavicle 3.61788e-014 3.97569e-014
rhumerus -30.1008 2.97592 -91.4408
rradius 29.4818
rwrist 2.80299
rhand -19.0095 34.5562
rfingers 7.12502
rthumb 7.29598 4.702
lclavicle 3.61788e-014 3.97569e-014
lhumerus -16.0898 19.0763 77.072
lradius 16.3332
lwrist -12.5973
lhand -12.2994 47.5591
lfingers 7.12502
lthumb 13.7685 77.0835
rfemur -36.2966 -4.64438 29.6342
rtibia 54.7348
rfoot -22.874 -4.78329
rtoes 17.4372
lfemur -8.9411 14.0959 -16.9208
ltibia 47.664
lfoot -39.282 -10.1963
ltoes 36.229
745
root -23.9174 14.8221 -4.01227 543.544 -36.8894 -535.874
lowerback 5.21939 -3.09887 -7.79845
upperback 3.5816 -4.70343 -3.00568
thorax 1.15365 -2.57139 1.41927
lowerneck -3.56664 -2.11378 -0.626556
upperneck -23.888 -4.34315 4.78441
head -6.56421 -3.31654 1.94716
rclavicle 1.02175e-013 -6.67916e-014
rhumerus -29.8918 2.29493 -91.2659
rradius 29.2592
rwrist 3.26694
rhand -18.8579 34.8524
rfingers 7.12502
rthumb 7.44232 5.00329
lclavicle 1.02175e-013 -6.67916e-014
lhumerus -15.9673 18.7479 77.2112
lradius 16.315
lwrist -12.4668
lhand -14.0091 49.9348
lfingers 7.12502
lthumb 12.1203 79.5638
rfemur -35.8937 -4.73215 29.9737
rtibia 54.532
rfoot -22.7543 -5.02152
rtoes 16.837
lfemur -8.61 13.9938 -16.4612
ltibia 47.5071
lfoot -39.1827 -10.5896
ltoes 37.0338
